<?xml version="1.0" standalone="no"?>
<!DOCTYPE svg PUBLIC "-//W3C//DTD SVG 20010904//EN"
 "http://www.w3.org/TR/2001/REC-SVG-20010904/DTD/svg10.dtd">
<svg version="1.0" xmlns="http://www.w3.org/2000/svg"
 width="640.000000pt" height="640.000000pt" viewBox="0 0 640.000000 640.000000"
 preserveAspectRatio="xMidYMid meet">
<metadata>
Created by potrace 1.14, written by Peter Selinger 2001-2017
</metadata>
<g transform="translate(0.000000,640.000000) scale(0.100000,-0.100000)"
fill="#000000" stroke="none">
<path d="M4465 5780 c-45 -51 -338 -270 -361 -270 -16 0 -97 -44 -87 -47 48
-17 485 285 472 326 -3 9 -11 6 -24 -9z"/>
<path d="M4322 5519 c-24 -23 -41 -44 -38 -47 6 -6 81 57 90 76 10 23 -9 12
-52 -29z"/>
<path d="M3770 5505 c25 -7 53 -16 63 -20 9 -4 17 -3 17 3 0 6 -23 15 -50 21
-68 15 -86 12 -30 -4z"/>
<path d="M4498 5439 c-1 -33 0 -68 4 -77 4 -9 7 18 7 61 1 92 -6 102 -11 16z"/>
<path d="M3928 5433 c-25 -30 -33 -47 -17 -38 24 14 49 38 49 47 0 14 -16 9
-32 -9z"/>
<path d="M2768 5413 c7 -3 16 -2 19 1 4 3 -2 6 -13 5 -11 0 -14 -3 -6 -6z"/>
<path d="M2698 5393 c7 -3 16 -2 19 1 4 3 -2 6 -13 5 -11 0 -14 -3 -6 -6z"/>
<path d="M4079 5272 c-35 -38 -76 -82 -90 -98 -15 -16 -46 -43 -70 -59 -64
-43 -139 -105 -139 -116 0 -22 29 -3 130 86 143 126 263 255 237 255 -2 0 -33
-31 -68 -68z"/>
<path d="M3252 5303 c-1 -12 -7 -33 -14 -47 -8 -18 -8 -32 -1 -48 10 -22 11
-21 18 13 3 19 5 51 2 70 -2 19 -5 24 -5 12z"/>
<path d="M4411 5304 c0 -11 3 -14 6 -6 3 7 2 16 -1 19 -3 4 -6 -2 -5 -13z"/>
<path d="M3491 5297 c2 -1 15 -11 29 -22 l25 -20 -19 23 c-11 12 -24 22 -29
22 -6 0 -8 -1 -6 -3z"/>
<path d="M4534 5125 c4 -22 14 -47 22 -55 12 -12 11 -5 -2 35 -21 64 -29 71
-20 20z"/>
<path d="M2961 5104 c-12 -27 -11 -28 4 -12 10 9 16 21 13 28 -2 7 -10 -1 -17
-16z"/>
<path d="M3085 5093 c-22 -19 -50 -42 -63 -51 -12 -8 -20 -17 -18 -20 6 -5 64
37 111 80 17 15 26 28 20 28 -5 0 -28 -17 -50 -37z"/>
<path d="M3160 5072 c-29 -39 -35 -49 -16 -32 32 29 70 79 64 85 -2 2 -24 -21
-48 -53z"/>
<path d="M2926 5035 c-9 -26 -7 -32 5 -12 6 10 9 21 6 23 -2 3 -7 -2 -11 -11z"/>
<path d="M3310 4998 c0 -10 -3 -18 -7 -19 -99 -7 -211 -35 -310 -76 -51 -20
-63 -30 -63 -47 0 -33 46 -160 62 -170 9 -5 61 4 138 24 69 18 159 39 200 47
41 8 77 16 78 18 5 5 -55 160 -79 205 -11 22 -18 28 -19 18z m-232 -120 c-3
-36 -15 -42 -31 -17 -13 21 -2 49 18 49 12 0 15 -8 13 -32z"/>
<path d="M3582 4915 c6 -14 13 -24 14 -22 6 6 -9 47 -17 47 -5 0 -3 -11 3 -25z"/>
<path d="M3850 4927 c0 -8 12 -23 28 -33 15 -9 62 -49 105 -87 42 -39 80 -68
83 -64 7 6 -62 77 -134 137 -68 57 -82 65 -82 47z"/>
<path d="M2877 4923 c-4 -3 -7 -11 -7 -17 0 -6 5 -5 12 2 6 6 9 14 7 17 -3 3
-9 2 -12 -2z"/>
<path d="M3676 4907 c3 -10 9 -15 12 -12 3 3 0 11 -7 18 -10 9 -11 8 -5 -6z"/>
<path d="M3602 4860 c0 -14 2 -19 5 -12 2 6 2 18 0 25 -3 6 -5 1 -5 -13z"/>
<path d="M3736 4818 c4 -7 17 -26 29 -43 31 -42 92 -165 132 -265 36 -91 35
-55 -2 47 -24 66 -143 273 -158 273 -4 0 -5 -6 -1 -12z"/>
<path d="M3622 4760 c0 -14 2 -19 5 -12 2 6 2 18 0 25 -3 6 -5 1 -5 -13z"/>
<path d="M3427 4674 l5 -62 -63 -7 c-180 -19 -290 -37 -325 -55 -35 -19 -38
-23 -36 -58 2 -20 11 -61 19 -89 18 -57 24 -60 83 -43 49 15 245 48 305 52
l50 3 6 -65 6 -65 1 70 c2 81 -22 274 -43 337 l-14 43 6 -61z m-307 -161 c0
-44 -16 -78 -24 -53 -20 63 -17 90 10 90 10 0 14 -11 14 -37z"/>
<path d="M3636 4675 c4 -33 6 -100 5 -148 l-2 -89 35 3 c38 4 51 -4 59 -36 3
-14 5 -12 6 9 1 34 -32 151 -63 221 -48 107 -47 105 -40 40z"/>
<path d="M3993 4673 c19 -41 22 -64 21 -158 -1 -112 -28 -255 -61 -318 -8 -16
-13 -38 -11 -50 5 -33 54 121 74 232 20 113 15 249 -11 304 -9 20 -21 37 -26
37 -4 0 2 -21 14 -47z"/>
<path d="M6372 4620 c-6 -11 -12 -28 -12 -39 0 -10 -9 -54 -21 -97 -11 -44
-33 -133 -50 -199 -16 -66 -35 -142 -43 -170 -8 -27 -17 -66 -21 -85 -4 -19
-27 -118 -52 -220 -24 -102 -48 -203 -53 -225 -20 -94 -67 -286 -85 -345 -7
-25 -16 -63 -20 -85 -3 -22 -19 -85 -35 -140 -16 -55 -32 -120 -36 -145 -3
-24 -10 -51 -14 -60 -5 -8 -18 -62 -29 -120 -11 -58 -28 -130 -37 -160 -8 -30
-24 -89 -34 -130 -10 -41 -29 -114 -43 -161 -14 -48 -31 -115 -37 -149 -6 -34
-16 -74 -21 -88 -6 -15 -19 -72 -30 -127 -11 -55 -26 -106 -32 -114 -9 -11 -9
-13 0 -8 7 5 9 0 6 -13 -9 -33 -27 -8 -67 93 -21 50 -46 112 -56 137 -10 25
-22 59 -26 75 -5 19 -9 24 -11 14 -2 -9 5 -41 16 -70 10 -30 31 -87 46 -127
28 -76 126 -253 185 -335 91 -124 179 -239 210 -274 93 -101 232 -281 248
-320 4 -10 28 -53 55 -94 26 -42 60 -115 76 -162 16 -47 34 -94 40 -104 21
-37 12 35 -14 103 -35 92 -90 189 -181 319 -43 61 -87 124 -99 142 -15 21 -22
48 -23 85 -1 29 -7 136 -13 238 -12 210 -14 197 60 483 28 109 51 209 51 222
0 14 9 44 19 67 11 24 28 70 37 103 61 215 109 101 134 -315 9 -151 16 -200
31 -200 4 0 8 635 9 1410 0 776 -3 1410 -8 1410 -4 0 -13 -9 -20 -20z m-415
-3271 c9 -4 43 -63 43 -74 0 -14 -18 7 -60 67 -25 37 -32 52 -17 37 14 -15 30
-29 34 -30z"/>
<path d="M4889 4377 c10 -41 40 -98 41 -75 0 9 -5 29 -10 44 -13 34 -7 40 22
20 12 -9 27 -16 33 -16 9 0 -79 60 -89 60 -2 0 -1 -15 3 -33z"/>
<path d="M3622 4380 c0 -14 2 -19 5 -12 2 6 2 18 0 25 -3 6 -5 1 -5 -13z"/>
<path d="M2850 4315 c7 -9 15 -13 17 -11 7 7 -7 26 -19 26 -6 0 -6 -6 2 -15z"/>
<path d="M5165 4296 c11 -8 27 -16 35 -16 20 0 1 16 -30 25 -24 7 -24 7 -5 -9z"/>
<path d="M2380 4275 c0 -6 56 -100 85 -143 34 -50 31 -28 -3 28 -75 123 -82
132 -82 115z"/>
<path d="M4931 4264 c0 -11 3 -14 6 -6 3 7 2 16 -1 19 -3 4 -6 -2 -5 -13z"/>
<path d="M5140 4276 c0 -2 7 -6 15 -10 8 -3 15 -1 15 4 0 6 -7 10 -15 10 -8 0
-15 -2 -15 -4z"/>
<path d="M3466 4208 c-5 -56 -3 -78 8 -67 10 10 18 129 9 129 -6 0 -13 -28
-17 -62z"/>
<path d="M2346 4205 c-3 -9 -6 -29 -5 -43 1 -22 3 -19 10 12 10 40 6 60 -5 31z"/>
<path d="M3662 4160 c0 -14 2 -19 5 -12 2 6 2 18 0 25 -3 6 -5 1 -5 -13z"/>
<path d="M1 4124 c0 -11 3 -14 6 -6 3 7 2 16 -1 19 -3 4 -6 -2 -5 -13z"/>
<path d="M2966 4127 c3 -10 9 -15 12 -12 3 3 0 11 -7 18 -10 9 -11 8 -5 -6z"/>
<path d="M4417 4115 c7 -34 52 -129 58 -123 4 4 -4 25 -48 118 -16 34 -16 34
-10 5z"/>
<path d="M2332 4100 c0 -14 2 -19 5 -12 2 6 2 18 0 25 -3 6 -5 1 -5 -13z"/>
<path d="M2616 4107 c3 -10 9 -15 12 -12 3 3 0 11 -7 18 -10 9 -11 8 -5 -6z"/>
<path d="M2500 4080 c0 -5 5 -10 11 -10 5 0 7 5 4 10 -3 6 -8 10 -11 10 -2 0
-4 -4 -4 -10z"/>
<path d="M2695 4065 c22 -14 61 -32 88 -42 59 -21 99 -59 77 -73 -12 -8 -10
-10 8 -10 13 0 40 -12 60 -27 23 -16 9 1 -34 45 -40 40 -80 74 -90 76 -11 2
-45 16 -78 30 -73 32 -83 33 -31 1z"/>
<path d="M2530 4042 c6 -13 14 -21 18 -18 3 4 -2 14 -12 24 -18 16 -18 16 -6
-6z"/>
<path d="M3793 3915 c0 -22 2 -30 4 -17 2 12 2 30 0 40 -3 9 -5 -1 -4 -23z"/>
<path d="M2743 3933 c-18 -2 -33 -8 -33 -13 0 -14 59 -101 94 -137 24 -27 56
-44 56 -30 0 1 -29 33 -65 70 -75 78 -81 97 -31 97 19 0 38 5 41 10 6 10 -2
10 -62 3z"/>
<path d="M2618 3903 c7 -3 16 -2 19 1 4 3 -2 6 -13 5 -11 0 -14 -3 -6 -6z"/>
<path d="M1870 3875 c-13 -14 -20 -28 -17 -32 8 -7 57 35 57 49 0 15 -16 8
-40 -17z"/>
<path d="M2495 3881 c-59 -17 -140 -59 -131 -68 2 -2 18 3 35 11 16 9 36 16
43 16 7 0 27 7 43 16 17 9 50 22 75 29 30 9 37 13 20 13 -14 0 -52 -7 -85 -17z"/>
<path d="M3011 3837 c67 -61 99 -87 106 -87 5 0 17 -7 27 -15 19 -14 18 -15
-17 -15 -25 0 -37 4 -37 14 0 12 -4 12 -27 1 -16 -7 -62 -16 -103 -20 -80 -7
-242 -37 -301 -56 -29 -9 -41 -22 -62 -64 -31 -59 -37 -116 -12 -95 11 9 18
10 29 1 11 -9 16 -5 26 19 17 40 90 100 122 100 23 0 26 -4 31 -55 3 -29 10
-62 16 -72 8 -14 9 -11 5 15 -8 41 13 120 36 132 21 11 197 40 245 40 24 0 37
-6 45 -21 17 -31 15 -77 -3 -97 -10 -10 -17 -24 -17 -30 0 -21 25 -13 35 11 6
12 19 26 30 31 11 5 27 22 36 39 8 17 20 32 26 34 13 5 33 -73 40 -159 6 -65
23 -97 23 -40 -1 52 -19 169 -31 194 -6 14 -46 50 -88 79 -42 29 -104 74 -138
101 -71 54 -96 64 -42 15z m189 -171 c0 -7 -6 -19 -14 -25 -11 -9 -15 -8 -20
5 -10 26 -7 34 14 34 11 0 20 -6 20 -14z"/>
<path d="M4390 3812 c0 -10 94 -109 125 -132 19 -14 4 5 -54 70 -13 14 -30 35
-38 48 -15 22 -33 30 -33 14z"/>
<path d="M2321 3794 c0 -11 3 -14 6 -6 3 7 2 16 -1 19 -3 4 -6 -2 -5 -13z"/>
<path d="M2315 3759 c-4 -6 -5 -12 -2 -15 2 -3 7 2 10 11 7 17 1 20 -8 4z"/>
<path d="M2635 3734 c-39 -14 -63 -37 -87 -79 -6 -11 8 -2 31 20 31 30 58 44
104 57 52 13 56 16 27 16 -19 0 -53 -6 -75 -14z"/>
<path d="M4382 3725 c0 -16 2 -22 5 -12 2 9 2 23 0 30 -3 6 -5 -1 -5 -18z"/>
<path d="M2321 3703 c-1 -32 51 -187 71 -210 20 -25 20 -5 -1 35 -12 23 -32
78 -45 124 -18 59 -25 74 -25 51z"/>
<path d="M1592 3675 c0 -16 2 -22 5 -12 2 9 2 23 0 30 -3 6 -5 -1 -5 -18z"/>
<path d="M4372 3670 c0 -14 2 -19 5 -12 2 6 2 18 0 25 -3 6 -5 1 -5 -13z"/>
<path d="M4687 3651 c18 -17 35 -31 39 -31 11 0 -29 41 -51 52 -12 6 -8 -2 12
-21z"/>
<path d="M4516 3650 c4 -8 15 -24 24 -35 10 -11 30 -45 46 -75 32 -63 64 -108
64 -91 0 19 -75 142 -110 181 -17 19 -28 28 -24 20z"/>
<path d="M4351 3629 c-1 -15 -4 -42 -7 -60 -4 -19 -4 -31 0 -27 13 12 23 73
15 93 -7 18 -8 17 -8 -6z"/>
<path d="M1581 3624 c0 -11 3 -14 6 -6 3 7 2 16 -1 19 -3 4 -6 -2 -5 -13z"/>
<path d="M2967 3620 c-16 -49 -27 -113 -22 -133 5 -18 -1 -25 -32 -39 -58 -25
-9 -23 63 3 32 12 72 22 87 22 16 0 26 5 24 11 -2 6 -18 10 -35 8 -29 -3 -31
-1 -42 51 -12 62 -35 102 -43 77z m27 -116 c4 -10 1 -14 -6 -12 -15 5 -23 28
-10 28 5 0 13 -7 16 -16z"/>
<path d="M1764 3555 c4 -39 13 -91 21 -115 l15 -45 -6 42 c-3 24 -7 70 -9 104
-2 33 -8 66 -15 72 -10 10 -11 -3 -6 -58z"/>
<path d="M4395 3599 c-10 -31 -13 -399 -3 -399 4 0 8 12 8 28 0 15 9 47 20 71
24 53 25 62 4 54 -15 -5 -16 8 -12 130 3 129 -2 165 -17 116z"/>
<path d="M4747 3599 c7 -7 15 -10 18 -7 3 3 -2 9 -12 12 -14 6 -15 5 -6 -5z"/>
<path d="M1644 3565 c3 -11 10 -53 16 -93 6 -41 17 -84 26 -95 l16 -22 -7 24
c-4 13 -15 61 -24 107 -9 46 -21 87 -25 91 -5 4 -6 -1 -2 -12z"/>
<path d="M1825 3540 c5 -8 17 -21 26 -28 24 -16 42 -76 34 -110 -4 -18 1 -44
14 -73 l21 -44 -6 65 c-3 36 -7 73 -9 83 -2 9 1 17 6 17 5 0 9 -5 9 -10 0 -6
15 -32 33 -58 17 -26 41 -66 51 -90 10 -23 23 -42 28 -42 12 0 11 5 -21 59
-17 28 -35 69 -42 91 -7 24 -25 52 -43 66 -17 13 -38 30 -46 37 -45 38 -63 50
-55 37z"/>
<path d="M1575 3510 c-16 -17 -16 -20 -3 -15 9 4 19 13 22 21 7 19 2 18 -19
-6z"/>
<path d="M4490 3505 c0 -19 4 -26 14 -22 9 4 17 -8 26 -36 17 -58 101 -259
107 -254 2 2 -16 53 -40 113 -24 60 -52 130 -61 156 -9 25 -24 52 -32 58 -12
10 -14 8 -14 -15z"/>
<path d="M4740 3508 c0 -33 81 -220 87 -201 4 12 -32 108 -53 141 -9 13 -13
26 -10 29 2 3 28 0 56 -6 63 -14 200 -14 220 -1 10 7 -17 9 -86 9 -94 -2 -165
11 -188 32 -14 13 -26 11 -26 -3z"/>
<path d="M5220 3490 c0 -5 39 -36 88 -67 48 -31 89 -60 92 -64 3 -3 27 -14 53
-24 65 -25 68 -35 8 -35 -28 0 -51 3 -51 8 0 4 -16 7 -35 8 -19 0 -35 -3 -35
-7 0 -15 45 -87 75 -121 16 -18 29 -36 27 -41 -1 -4 1 -6 6 -5 11 3 69 -33
114 -69 35 -29 58 -41 58 -29 0 2 -24 22 -52 44 -85 64 -201 192 -187 206 2 2
24 1 49 -4 24 -4 78 -6 120 -2 l75 5 -65 22 c-88 30 -267 123 -301 158 -29 29
-39 33 -39 17z"/>
<path d="M2020 3454 c1 -16 9 -67 19 -114 11 -53 14 -87 9 -91 -11 -7 3 -39
25 -58 21 -17 31 14 13 42 -15 26 -42 135 -34 142 3 3 20 -24 39 -61 19 -37
46 -76 60 -86 33 -25 29 -43 -23 -118 -58 -84 -45 -84 17 0 30 41 57 87 60
102 8 37 21 43 42 22 23 -23 129 -71 173 -79 31 -5 33 -4 15 7 -11 7 -45 21
-74 31 -66 23 -153 82 -175 119 -17 28 -63 78 -129 137 l-37 35 0 -30z"/>
<path d="M2277 3383 c44 -87 60 -103 34 -34 -11 30 -19 57 -16 59 2 3 31 -3
63 -12 93 -26 94 -18 2 15 -47 17 -92 33 -102 36 -12 4 -8 -11 19 -64z"/>
<path d="M4451 3394 c0 -11 3 -14 6 -6 3 7 2 16 -1 19 -3 4 -6 -2 -5 -13z"/>
<path d="M2511 3366 c2 -2 18 -6 34 -10 22 -5 26 -4 15 4 -14 9 -59 15 -49 6z"/>
<path d="M4280 3263 c-16 -51 -93 -203 -137 -272 -20 -31 -116 -136 -214 -235
-99 -98 -189 -192 -200 -210 -12 -17 16 6 61 52 46 45 87 82 91 82 15 0 10
-65 -10 -121 -33 -98 -71 -160 -138 -225 -36 -35 -61 -64 -56 -64 15 0 153
111 187 151 16 18 31 28 34 21 2 -6 -8 -57 -22 -113 -14 -56 -26 -110 -26
-120 0 -18 -26 -29 -100 -42 -14 -3 34 -3 105 0 144 6 135 6 153 4 26 -2 112
-239 127 -353 l6 -46 -54 -7 c-29 -4 -62 -6 -73 -5 -50 6 -53 -3 -5 -15 30 -7
58 -20 63 -29 5 -9 33 -27 63 -40 50 -23 53 -27 74 -87 12 -35 29 -91 37 -123
8 -33 18 -65 23 -70 4 -6 13 -38 20 -71 7 -33 15 -64 17 -70 7 -19 -4 111 -19
235 -8 69 -19 199 -23 290 -3 91 -19 248 -34 350 -15 102 -26 187 -24 189 2 3
18 -5 34 -17 27 -21 50 -28 50 -17 0 2 -20 23 -44 45 -42 39 -63 87 -58 132 1
10 23 46 49 80 70 92 122 189 136 253 4 17 -12 -8 -36 -55 -37 -74 -112 -190
-122 -190 -2 0 3 23 11 51 9 28 13 53 11 55 -2 3 -12 -22 -22 -53 -23 -76 -24
-77 -45 -56 -9 10 -16 20 -15 23 2 3 -4 78 -12 168 -15 167 -14 196 10 186 9
-3 18 6 26 28 19 51 39 83 51 81 5 -2 9 0 9 5 -3 18 3 46 8 34 2 -6 10 -9 15
-5 8 4 9 -41 5 -157 -5 -130 -4 -161 6 -151 9 9 12 76 13 249 0 130 4 247 8
260 4 13 6 26 3 28 -3 3 -10 -12 -17 -33z m-224 -558 c3 -22 9 -49 13 -60 5
-11 21 -58 36 -105 15 -47 30 -92 33 -100 2 -8 -10 0 -27 19 -39 41 -118 196
-127 248 -5 33 -2 42 22 67 l28 28 9 -29 c5 -15 11 -46 13 -68z m-120 -453 c5
-43 4 -52 -9 -52 -8 0 -22 -3 -30 -6 -22 -8 -27 19 -12 70 26 85 38 82 51 -12z
m251 -64 c-3 -8 -6 -5 -6 6 -1 11 2 17 5 13 3 -3 4 -12 1 -19z"/>
<path d="M2330 3287 c0 -11 29 -67 35 -67 3 0 5 6 5 13 0 13 -39 67 -40 54z"/>
<path d="M1854 3266 c-8 -8 -8 -19 -1 -36 l10 -25 4 23 c7 35 0 53 -13 38z"/>
<path d="M1926 3250 c7 -38 11 -46 19 -38 3 3 -2 20 -10 39 l-16 34 7 -35z"/>
<path d="M3539 3218 c-20 -24 -70 -68 -112 -98 -42 -30 -76 -58 -77 -62 0 -12
131 81 161 114 24 27 29 11 12 -38 -8 -25 -13 -47 -10 -50 6 -7 70 153 65 166
-2 6 -19 -9 -39 -32z"/>
<path d="M1847 3180 c6 -24 26 -21 31 3 2 11 -3 17 -16 17 -15 0 -19 -5 -15
-20z"/>
<path d="M1941 3184 c0 -11 3 -14 6 -6 3 7 2 16 -1 19 -3 4 -6 -2 -5 -13z"/>
<path d="M3145 3102 c-38 -41 -51 -60 -35 -52 13 7 32 23 41 34 9 12 26 32 38
45 12 13 21 28 21 33 0 11 2 13 -65 -60z"/>
<path d="M1966 3109 c14 -45 13 -56 -1 -107 -9 -31 -20 -66 -25 -77 -27 -58
-41 -302 -20 -350 7 -16 9 -11 9 21 1 23 8 55 16 70 8 16 15 36 15 45 0 8 5
20 12 27 9 9 18 -5 39 -63 15 -41 37 -88 48 -104 12 -16 21 -34 21 -39 0 -17
-146 -110 -156 -100 -2 2 -10 19 -18 38 -14 33 -14 30 -14 -80 1 -67 4 -102 8
-84 4 17 10 36 15 43 16 26 158 111 186 111 31 0 48 -17 26 -26 -12 -4 -10
-10 8 -28 15 -15 25 -42 31 -77 l8 -54 7 40 c9 47 10 87 2 66 -8 -21 -35 48
-27 71 4 14 0 21 -15 25 -21 5 -21 6 5 19 34 18 36 18 33 -3 -1 -10 -1 -36 0
-57 1 -53 19 -35 23 24 l3 45 29 -44 c22 -34 30 -41 38 -30 7 11 8 9 4 -5 -4
-12 1 -26 14 -38 24 -23 25 -16 4 45 -16 49 -42 80 -29 36 5 -18 0 -14 -19 13
-14 20 -26 41 -26 45 0 9 45 53 54 53 3 0 15 8 25 18 11 9 28 24 37 32 17 14
17 15 2 18 -9 2 -26 -2 -37 -7 -31 -17 -86 -13 -102 7 -8 9 -21 30 -29 47 -8
16 -33 45 -54 65 -67 60 -136 132 -136 142 0 5 14 21 30 35 31 26 67 83 52 83
-4 0 -6 29 -4 65 3 42 1 65 -6 65 -19 0 -34 -40 -28 -73 5 -25 4 -27 -3 -12
l-10 20 -1 -20 c-3 -25 -3 -26 5 -50 3 -11 -1 -8 -10 8 -9 15 -15 33 -14 40 4
18 -23 97 -32 97 -4 0 -1 -23 7 -51z m24 -144 c4 3 6 -4 3 -15 -8 -29 -21 -24
-20 8 0 15 2 21 4 14 3 -6 8 -10 13 -7z m-25 -44 c3 -5 1 -12 -5 -16 -5 -3
-10 1 -10 9 0 18 6 21 15 7z m14 -85 c-5 -6 -9 -21 -9 -34 0 -13 -5 -33 -12
-45 -6 -12 -15 -35 -19 -52 -5 -20 -7 1 -7 60 0 49 6 98 12 107 10 17 12 17
28 -4 11 -15 13 -27 7 -32z m71 -47 c0 -3 19 -20 43 -37 45 -33 94 -107 77
-117 -6 -3 -10 -18 -10 -33 0 -20 -8 -33 -30 -45 -17 -10 -34 -16 -39 -13 -5
3 -18 32 -31 63 -12 32 -28 72 -35 89 -18 42 -29 100 -21 113 7 11 46 -7 46
-20z"/>
<path d="M3224 3088 c-9 -18 -32 -52 -51 -76 -49 -60 -36 -62 19 -4 57 61 86
112 64 112 -9 0 -23 -15 -32 -32z"/>
<path d="M5143 3057 c15 -12 34 -40 42 -62 10 -30 15 -36 20 -23 5 13 15 16
38 12 28 -4 30 -3 14 8 -11 7 -42 30 -70 51 -54 40 -91 52 -44 14z"/>
<path d="M1861 3045 c0 -11 8 -36 19 -55 22 -41 26 -32 6 13 -8 18 -17 39 -19
47 -4 10 -6 9 -6 -5z"/>
<path d="M3055 3030 c-16 -7 -17 -9 -3 -9 9 -1 20 4 23 9 7 11 7 11 -20 0z"/>
<path d="M4391 3024 c0 -11 3 -14 6 -6 3 7 2 16 -1 19 -3 4 -6 -2 -5 -13z"/>
<path d="M4206 2963 c-6 -14 -5 -15 5 -6 7 7 10 15 7 18 -3 3 -9 -2 -12 -12z"/>
<path d="M5290 2971 c0 -32 257 -57 326 -31 44 17 22 21 -59 10 -74 -9 -194 3
-249 25 -11 4 -18 3 -18 -4z"/>
<path d="M5200 2941 c0 -5 5 -13 10 -16 6 -3 10 -2 10 4 0 5 -4 13 -10 16 -5
3 -10 2 -10 -4z"/>
<path d="M4178 2915 c-19 -26 -24 -55 -9 -55 9 0 36 68 29 75 -1 2 -11 -7 -20
-20z"/>
<path d="M4385 2888 c-7 -46 -2 -68 16 -68 10 0 10 54 0 90 -7 22 -9 19 -16
-22z"/>
<path d="M3401 2812 c-24 -48 -51 -96 -60 -107 -10 -11 -35 -45 -56 -75 -35
-50 -36 -53 -10 -30 16 14 37 34 46 45 24 28 134 243 128 250 -3 2 -25 -35
-48 -83z"/>
<path d="M4417 2825 c-4 -9 -1 -18 8 -21 8 -4 15 -11 15 -16 0 -5 9 -21 20
-35 27 -35 25 -26 -9 36 -21 38 -30 48 -34 36z"/>
<path d="M3600 2793 c0 -14 -30 -45 -61 -63 -70 -40 -219 -144 -219 -152 0 -5
15 -1 33 10 87 53 176 100 181 95 9 -9 -18 -58 -53 -95 -19 -21 -29 -38 -22
-38 24 0 75 64 105 131 16 35 33 74 39 86 6 13 7 26 4 30 -4 3 -7 2 -7 -4z"/>
<path d="M5251 2784 c0 -11 3 -14 6 -6 3 7 2 16 -1 19 -3 4 -6 -2 -5 -13z"/>
<path d="M3713 2710 c-47 -64 -123 -140 -250 -253 -37 -33 -36 -13 1 36 36 47
37 64 4 46 -10 -5 -24 -7 -30 -3 -7 4 -8 3 -4 -4 4 -7 -6 -15 -26 -22 l-33
-10 38 5 c38 4 39 4 23 -18 -9 -12 -25 -39 -37 -60 l-20 -38 20 11 c12 6 21
15 21 21 0 6 4 8 9 5 11 -7 128 88 215 176 37 38 70 67 72 65 2 -2 -7 -35 -21
-73 -16 -45 -20 -62 -10 -49 18 23 68 180 63 197 -2 6 -18 -8 -35 -32z"/>
<path d="M2505 2730 c-3 -5 -2 -10 4 -10 5 0 13 5 16 10 3 6 2 10 -4 10 -5 0
-13 -4 -16 -10z"/>
<path d="M5281 2700 c0 -8 4 -24 9 -35 5 -13 9 -14 9 -5 0 8 -4 24 -9 35 -5
13 -9 14 -9 5z"/>
<path d="M1877 2565 c3 -22 7 -42 9 -44 8 -9 2 45 -6 64 -7 14 -8 8 -3 -20z"/>
<path d="M2294 2543 c16 -31 91 -106 85 -85 -6 18 -82 111 -92 112 -4 0 -1
-12 7 -27z"/>
<path d="M4360 2523 c0 -13 5 -23 10 -23 13 0 13 11 0 30 -8 12 -10 11 -10 -7z"/>
<path d="M5331 2524 c0 -11 3 -14 6 -6 3 7 2 16 -1 19 -3 4 -6 -2 -5 -13z"/>
<path d="M1673 2425 c0 -22 2 -30 4 -17 2 12 2 30 0 40 -3 9 -5 -1 -4 -23z"/>
<path d="M2051 2341 c-23 -27 -50 -73 -60 -103 -10 -29 -28 -75 -40 -101 -12
-27 -21 -61 -21 -75 0 -19 8 -7 24 38 35 98 63 158 96 206 63 94 63 110 1 35z"/>
<path d="M1664 2353 c-9 -14 -8 -21 3 -32 18 -17 21 -13 14 22 -5 25 -7 26
-17 10z"/>
<path d="M3085 2351 c-22 -9 -74 -33 -115 -53 -110 -53 -291 -125 -333 -133
-57 -11 -82 1 -116 52 -17 25 -31 43 -31 39 0 -13 43 -91 54 -98 30 -20 139 0
253 47 35 14 68 25 74 25 8 0 10 -19 6 -62 l-6 -63 16 50 c14 44 17 48 27 31
6 -10 19 -28 28 -40 l17 -21 -2 23 c-1 12 -6 22 -11 22 -5 0 -6 3 -3 7 4 3 1
13 -7 22 -18 21 -3 66 19 57 8 -3 15 -2 15 3 0 5 11 9 25 9 13 0 22 -4 19 -9
-3 -5 0 -9 6 -9 10 0 79 -137 84 -165 1 -5 4 -14 8 -20 15 -26 19 -79 7 -102
-10 -19 -10 -31 -1 -55 11 -30 10 -33 -73 -120 -47 -49 -85 -93 -85 -99 0 -17
-30 -9 -31 9 0 15 -2 14 -10 -3 -6 -14 -8 -4 -6 38 1 31 -1 57 -5 57 -5 0 -8
-27 -8 -60 0 -56 -2 -61 -27 -71 -31 -11 -47 4 -37 36 3 11 17 79 30 150 13
72 26 135 28 141 2 6 1 26 -3 45 -6 29 -8 23 -14 -41 -4 -41 -18 -120 -32
-175 -14 -55 -25 -115 -25 -133 0 -23 -4 -32 -12 -30 -19 7 -21 113 -4 186 8
34 11 60 6 57 -15 -9 -32 -105 -34 -197 -2 -51 -9 -121 -16 -156 -14 -62 -15
-65 -104 -142 -115 -99 -149 -134 -179 -188 -14 -24 -58 -83 -99 -130 -133
-156 -283 -355 -348 -462 -68 -113 -110 -169 -178 -240 -38 -39 -43 -49 -38
-78 3 -18 21 -55 40 -83 20 -27 36 -53 36 -59 0 -5 -16 -39 -36 -75 -19 -37
-33 -72 -31 -78 2 -6 25 29 52 78 80 150 113 207 164 280 57 82 305 468 346
538 15 27 35 51 44 54 9 2 24 9 35 15 12 6 22 6 29 -1 22 -22 44 -9 77 47 19
31 76 121 127 200 51 79 93 146 93 149 0 21 136 244 199 327 99 130 133 164
279 279 104 84 94 101 -28 47 -38 -16 -70 -30 -73 -30 -2 0 -15 31 -27 70 -12
38 -42 109 -65 157 -24 49 -40 89 -37 91 4 1 30 16 57 32 56 33 51 38 -10 11z
m193 -350 c-25 -16 -66 -49 -91 -73 l-45 -43 -5 29 c-5 38 20 62 99 93 81 30
96 28 42 -6z m-454 -393 c-5 -7 -9 -19 -10 -28 -1 -8 -10 -33 -19 -55 -13 -33
-15 -34 -10 -10 3 17 7 43 8 58 2 16 10 33 18 38 19 12 22 11 13 -3z m-180
-263 c-9 -14 -20 -25 -25 -25 -5 0 -9 -5 -9 -11 0 -21 -214 -271 -224 -262 -3
4 10 21 29 40 19 19 35 37 35 40 0 22 74 119 134 175 39 37 72 68 74 68 1 0
-5 -11 -14 -25z m-274 -326 c-6 -11 -18 -23 -26 -26 -8 -3 -14 -11 -14 -19 0
-8 -4 -14 -10 -14 -5 0 -22 -22 -38 -50 -16 -27 -32 -47 -35 -43 -4 3 -7 -5
-7 -18 0 -20 -2 -21 -11 -9 -9 12 -10 11 -6 -7 4 -16 1 -20 -11 -16 -10 4 -13
2 -8 -5 7 -11 -11 -28 -20 -19 -8 8 57 98 127 177 65 73 77 83 59 49z m-200
-248 c0 -5 -7 -12 -16 -15 -14 -5 -15 -4 -4 9 14 17 20 19 20 6z"/>
<path d="M2450 2331 c0 -6 4 -13 10 -16 6 -3 7 1 4 9 -7 18 -14 21 -14 7z"/>
<path d="M1758 2270 c-20 -15 -27 -33 -33 -77 l-8 -58 -12 50 c-12 49 -13 47
-14 -68 0 -65 2 -116 7 -114 4 3 5 -15 3 -40 -4 -56 14 -51 23 7 7 45 6 44 40
29 38 -18 70 8 86 68 7 26 19 67 26 91 8 23 13 59 13 80 -2 34 -2 34 -6 7 -6
-40 -23 -57 -23 -22 0 31 -31 67 -59 67 -10 0 -30 -9 -43 -20z m42 -14 c0 -3
-4 -8 -10 -11 -5 -3 -10 -1 -10 4 0 6 5 11 10 11 6 0 10 -2 10 -4z m-93 -198
c-3 -8 -6 -5 -6 6 -1 11 2 17 5 13 3 -3 4 -12 1 -19z"/>
<path d="M4730 2265 c0 -13 44 -87 47 -78 2 6 -6 27 -18 47 -19 33 -29 43 -29
31z"/>
<path d="M1469 2178 c-2 -13 -1 -45 2 -73 6 -47 6 -46 7 23 2 71 -2 93 -9 50z"/>
<path d="M3688 2153 c6 -2 18 -2 25 0 6 3 1 5 -13 5 -14 0 -19 -2 -12 -5z"/>
<path d="M3525 2116 c-79 -27 -165 -63 -165 -70 0 -3 15 0 33 6 17 5 41 12 52
15 11 4 22 9 25 13 3 4 38 17 78 29 39 12 72 24 72 26 0 9 -25 4 -95 -19z"/>
<path d="M1312 2080 c0 -14 2 -19 5 -12 2 6 2 18 0 25 -3 6 -5 1 -5 -13z"/>
<path d="M2924 2017 c28 -74 66 -151 71 -145 4 4 -24 78 -68 181 -23 55 -26
25 -3 -36z"/>
<path d="M3515 2054 c22 -8 53 -19 69 -24 16 -5 40 -16 55 -25 23 -14 22 -13
-4 9 -42 36 -87 56 -127 56 l-33 -1 40 -15z"/>
<path d="M1302 2030 c0 -14 2 -19 5 -12 2 6 2 18 0 25 -3 6 -5 1 -5 -13z"/>
<path d="M2842 2008 c-6 -23 -9 -44 -7 -46 2 -2 9 15 15 38 6 23 9 44 7 46 -2
3 -9 -14 -15 -38z"/>
<path d="M1922 2000 c0 -14 2 -19 5 -12 2 6 2 18 0 25 -3 6 -5 1 -5 -13z"/>
<path d="M5350 2011 c0 -6 4 -13 10 -16 6 -3 7 1 4 9 -7 18 -14 21 -14 7z"/>
<path d="M3671 1983 c1 -11 139 -126 145 -121 2 3 -21 27 -52 54 -70 60 -94
78 -93 67z"/>
<path d="M1908 1950 c-4 -14 -8 -41 -7 -60 0 -33 1 -34 10 -10 6 13 9 40 7 60
-3 32 -4 33 -10 10z"/>
<path d="M1482 1938 c-12 -28 -3 -110 22 -202 10 -41 11 -60 0 -110 -16 -75
-16 -76 -4 -76 11 0 33 77 26 95 -3 9 7 12 39 9 30 -2 48 2 57 13 11 14 10 15
-9 9 -28 -9 -69 28 -79 71 -4 15 -10 30 -15 33 -4 3 -11 46 -16 95 -8 80 -11
87 -21 63z"/>
<path d="M1265 1816 c3 -32 12 -70 21 -85 14 -25 14 -25 8 19 -4 24 -13 62
-20 85 l-14 40 5 -59z"/>
<path d="M1047 1763 c-9 -43 -18 -125 -21 -183 l-4 -105 9 85 c9 84 36 241 46
267 3 7 1 13 -4 13 -6 0 -17 -35 -26 -77z"/>
<path d="M2955 1810 c-3 -6 1 -7 9 -4 18 7 21 14 7 14 -6 0 -13 -4 -16 -10z"/>
<path d="M1702 1772 c-6 -15 -23 -39 -37 -54 -14 -16 -22 -28 -17 -28 16 0 62
52 68 77 9 34 1 37 -14 5z"/>
<path d="M1251 1770 c-1 -8 -4 -26 -7 -40 -5 -19 -4 -22 5 -14 7 6 11 24 8 40
-2 16 -5 22 -6 14z"/>
<path d="M5060 1773 c0 -10 30 -45 117 -136 90 -93 103 -104 103 -84 0 8 -30
47 -67 87 -72 76 -153 147 -153 133z"/>
<path d="M1292 1608 c-27 -67 -23 -87 6 -38 l20 31 22 -36 c25 -41 64 -70 80
-60 6 4 -2 15 -21 28 -41 28 -69 66 -78 105 -6 30 -7 29 -29 -30z"/>
<path d="M1090 1594 c0 -9 11 -29 25 -46 30 -36 31 -34 5 20 -22 45 -30 52
-30 26z"/>
<path d="M1916 1568 c-11 -37 -14 -60 -6 -52 11 12 24 64 16 64 -4 0 -8 -6
-10 -12z"/>
<path d="M3820 1555 c13 -14 26 -25 28 -25 3 0 -5 11 -18 25 -13 14 -26 25
-28 25 -3 0 5 -11 18 -25z"/>
<path d="M5630 1539 c0 -7 13 -40 30 -75 26 -56 31 -94 12 -94 -4 0 -35 28
-69 62 -35 34 -63 58 -63 52 0 -17 131 -163 206 -229 58 -52 307 -290 366
-350 11 -11 43 -48 71 -82 28 -35 54 -63 58 -63 11 0 -1 70 -19 105 -25 50
-331 419 -340 410 -3 -2 16 -29 41 -58 26 -30 66 -84 91 -121 25 -37 61 -83
82 -104 77 -76 159 -206 93 -146 -33 29 -154 186 -152 195 2 5 -3 6 -10 4 -23
-9 -116 84 -143 143 -15 32 -35 75 -45 98 -11 23 -17 50 -13 60 5 16 4 16 -5
4 -9 -13 -11 -13 -11 1 0 21 -44 108 -70 139 l-22 25 6 -27 c4 -15 31 -81 61
-147 30 -66 55 -126 55 -132 0 -21 -46 29 -67 74 -102 209 -126 258 -134 263
-5 3 -9 0 -9 -7z m76 -172 c1 -7 5 -20 9 -29 9 -22 -1 -23 -21 -3 -10 9 -13
23 -9 36 7 21 17 19 21 -4z"/>
<path d="M3019 1513 c-13 -16 -12 -17 4 -4 16 13 21 21 13 21 -2 0 -10 -8 -17
-17z"/>
<path d="M3860 1526 c0 -3 21 -17 48 -32 64 -38 121 -81 156 -118 16 -17 24
-22 18 -11 -12 23 -54 64 -97 92 -50 33 -125 74 -125 69z"/>
<path d="M5516 1507 c3 -10 9 -15 12 -12 3 3 0 11 -7 18 -10 9 -11 8 -5 -6z"/>
<path d="M1205 1500 c-3 -5 3 -10 14 -10 12 0 21 5 21 10 0 6 -6 10 -14 10 -8
0 -18 -4 -21 -10z"/>
<path d="M1011 1454 c0 -11 3 -14 6 -6 3 7 2 16 -1 19 -3 4 -6 -2 -5 -13z"/>
<path d="M5350 1422 c0 -10 184 -192 194 -192 15 0 -14 35 -94 116 -78 79
-100 96 -100 76z"/>
<path d="M512 1358 c14 -39 38 -86 38 -74 0 17 -35 106 -42 106 -4 0 -2 -15 4
-32z"/>
<path d="M1758 1288 c-57 -86 -95 -169 -102 -226 -4 -29 -9 -59 -12 -67 -4 -8
-2 -15 4 -15 6 0 14 30 18 66 6 58 15 82 71 176 68 115 81 157 21 66z"/>
<path d="M987 1298 c-4 -11 10 -58 33 -117 37 -90 40 -107 41 -197 1 -92 2
-95 10 -44 10 69 -4 164 -37 241 -13 33 -28 76 -32 97 -6 27 -10 32 -15 20z"/>
<path d="M5860 1300 c0 -5 5 -10 11 -10 5 0 7 5 4 10 -3 6 -8 10 -11 10 -2 0
-4 -4 -4 -10z"/>
<path d="M5062 1225 c11 -20 23 -34 25 -31 5 5 -35 66 -42 66 -3 0 5 -16 17
-35z"/>
<path d="M4312 1215 c0 -16 2 -22 5 -12 2 9 2 23 0 30 -3 6 -5 -1 -5 -18z"/>
<path d="M5257 1192 c3 -12 9 -25 14 -28 14 -8 11 10 -6 32 -13 18 -14 18 -8
-4z"/>
<path d="M5756 1158 c4 -13 24 -41 46 -63 21 -22 36 -32 33 -23 -5 13 -2 15
14 11 12 -3 24 -9 27 -14 3 -5 10 -9 17 -9 6 0 -3 14 -22 30 -18 17 -37 27
-43 24 -6 -4 -8 -2 -5 3 6 10 -52 63 -68 63 -3 0 -3 -10 1 -22z"/>
<path d="M4314 1065 c4 -60 22 -204 41 -320 18 -115 36 -237 40 -270 5 -56 50
-340 62 -395 3 -14 8 -19 10 -13 3 7 -2 50 -11 95 -16 86 -40 266 -56 423 -6
50 -12 100 -15 113 -8 34 -44 282 -55 381 -14 123 -24 114 -16 -14z"/>
<path d="M5170 1018 c0 -9 7 -21 15 -28 9 -7 14 -19 11 -27 -3 -8 -2 -11 3 -8
5 3 11 0 14 -7 2 -7 2 -2 0 11 -5 30 -43 81 -43 59z"/>
<path d="M600 959 c0 -36 35 -156 51 -173 17 -19 8 -32 -47 -65 -42 -25 -54
-37 -48 -49 3 -10 9 -29 13 -45 l6 -27 89 45 c49 24 94 53 102 62 18 25 26 13
65 -87 18 -47 38 -92 45 -100 26 -31 96 -221 90 -245 -4 -14 -20 -29 -43 -39
-42 -18 -96 -48 -115 -64 -7 -6 -25 -8 -40 -5 -33 6 -32 32 5 91 30 47 45 52
72 22 26 -28 35 -25 29 10 -5 23 -3 30 10 30 25 0 20 64 -13 154 -17 43 -33
81 -37 85 -4 3 -4 -2 -1 -12 4 -11 1 -20 -7 -23 -8 -3 -12 -14 -9 -25 4 -13 1
-19 -8 -17 -9 2 -15 -7 -17 -24 -2 -20 -9 -28 -24 -28 -14 0 -18 -5 -14 -15 5
-13 -9 -20 -35 -17 -3 1 -7 -33 -8 -75 -1 -42 -4 -80 -6 -84 -3 -4 2 -29 10
-55 15 -48 15 -49 -11 -71 -14 -13 -24 -23 -22 -23 16 0 186 91 235 126 90 64
96 61 88 -34 -4 -42 -9 -85 -11 -94 -3 -10 -1 -18 4 -18 14 0 20 43 32 210 6
80 15 179 20 220 15 127 21 264 12 278 -6 9 -11 -2 -16 -35 -5 -38 -15 -56
-48 -90 -45 -46 -72 -54 -87 -25 -5 10 -21 24 -35 32 -14 7 -26 18 -26 24 -1
22 -39 56 -62 56 -28 0 -28 1 -88 145 -23 55 -44 102 -46 104 -2 2 -11 -2 -20
-9 -13 -12 -17 -11 -25 1 -6 10 -9 4 -9 -22z m133 -202 c3 -8 -5 -14 -21 -15
-25 -2 -25 -2 -6 13 23 18 21 17 27 2z m-27 -31 c13 3 24 2 24 -3 0 -5 -12 -8
-27 -7 -42 2 -45 3 -37 16 6 9 9 9 12 0 2 -7 13 -10 28 -6z m-37 -20 c20 -11
21 -14 6 -20 -9 -3 -22 -3 -27 1 -7 4 -8 1 -3 -7 6 -9 2 -10 -15 -5 -15 5 -20
3 -16 -3 3 -6 2 -13 -4 -17 -11 -7 -13 5 -4 29 3 9 16 16 28 16 17 0 18 2 6
10 -22 14 1 11 29 -4z m-75 -31 c-4 -8 -10 -12 -15 -9 -11 6 -2 24 11 24 5 0
7 -7 4 -15z m445 -62 c-1 -21 -4 -65 -8 -98 l-6 -60 -23 49 c-12 27 -20 52
-17 55 4 3 10 -1 14 -8 5 -8 11 -9 15 -3 3 6 1 12 -5 14 -15 5 -15 54 1 73 20
25 30 17 29 -22z m-19 -294 c0 -20 -26 11 -35 41 l-7 25 21 -27 c11 -14 21
-32 21 -39z"/>
<path d="M1631 944 c0 -11 3 -14 6 -6 3 7 2 16 -1 19 -3 4 -6 -2 -5 -13z"/>
<path d="M1612 878 c-16 -51 -24 -94 -18 -87 8 7 36 113 31 117 -2 2 -8 -12
-13 -30z"/>
<path d="M5989 845 c17 -20 54 -84 82 -143 28 -59 60 -124 71 -145 26 -50 17
-57 -20 -15 -17 18 -33 31 -36 27 -9 -9 56 -93 155 -200 160 -172 153 -166
157 -146 3 12 -21 43 -71 91 -76 74 -116 138 -177 281 -14 33 -41 88 -59 123
-37 73 -30 72 65 -13 87 -78 102 -87 78 -45 -23 38 -38 54 -95 100 -24 19 -53
44 -65 55 -58 53 -76 65 -95 65 -19 0 -19 -3 10 -35z"/>
<path d="M924 839 c-19 -21 -22 -28 -9 -20 28 15 55 37 55 45 0 14 -18 4 -46
-25z"/>
<path d="M5560 824 c0 -4 15 -23 33 -43 17 -21 48 -57 68 -82 71 -86 78 -94
79 -86 0 7 -39 64 -76 112 -8 11 -29 39 -45 63 -26 36 -59 56 -59 36z"/>
<path d="M876 793 c-6 -14 -5 -15 5 -6 7 7 10 15 7 18 -3 3 -9 -2 -12 -12z"/>
<path d="M1576 605 c-4 -80 -5 -148 -2 -153 2 -4 6 -57 8 -118 2 -83 0 -115
-11 -127 -15 -19 -1 -23 17 -5 6 6 14 9 17 7 2 -3 8 -51 11 -107 9 -133 28
-135 22 -3 -3 81 -7 104 -23 121 -18 20 -20 40 -23 273 -1 138 -4 252 -6 254
-2 2 -6 -62 -10 -142z"/>
<path d="M5390 692 c0 -5 9 -35 20 -67 11 -32 18 -61 15 -63 -3 -3 0 -10 5
-17 5 -6 17 -112 25 -236 21 -291 23 -309 40 -309 7 0 16 10 18 22 l4 23 2
-22 c1 -16 7 -23 21 -23 24 0 24 -13 0 147 -31 214 -67 373 -110 485 -19 52
-40 83 -40 60z"/>
<path d="M4195 640 c-8 -48 -10 -338 -2 -346 2 -3 8 81 12 186 7 188 4 242
-10 160z"/>
<path d="M738 639 c-10 -5 -18 -14 -18 -19 0 -17 26 -11 45 10 20 22 4 28 -27
9z"/>
<path d="M5750 598 c0 -7 89 -139 100 -148 4 -3 17 -32 30 -65 13 -33 36 -85
51 -115 15 -30 34 -71 42 -90 8 -19 30 -68 47 -107 l33 -73 43 0 c44 0 49 10
24 45 -4 6 -18 30 -32 55 -14 25 -44 80 -67 122 -24 43 -46 78 -50 78 -4 0
-15 16 -24 35 -9 20 -24 38 -32 41 -8 4 -15 10 -15 16 0 10 -72 119 -101 152
-10 12 -25 30 -33 41 -9 11 -16 17 -16 13z"/>
<path d="M581 570 c0 -8 4 -24 9 -35 5 -13 9 -14 9 -5 0 8 -4 24 -9 35 -5 13
-9 14 -9 5z"/>
<path d="M6343 489 c32 -50 53 -74 55 -64 4 16 -86 144 -100 145 -4 0 16 -36
45 -81z"/>
<path d="M715 420 c-3 -5 -1 -10 4 -10 6 0 11 5 11 10 0 6 -2 10 -4 10 -3 0
-8 -4 -11 -10z"/>
<path d="M1476 164 c-26 -9 -46 -18 -43 -21 6 -5 107 25 107 33 0 6 -10 4 -64
-12z"/>
<path d="M4746 142 c-4 -6 -3 -20 3 -29 5 -10 12 -39 16 -66 8 -53 25 -64 24
-14 0 41 -33 124 -43 109z"/>
<path d="M975 45 c-3 -8 -7 -22 -10 -30 -2 -8 0 -15 5 -15 6 0 10 7 10 15 0 9
7 18 15 21 8 4 12 10 9 15 -8 14 -24 11 -29 -6z"/>
<path d="M1038 53 c7 -3 16 -2 19 1 4 3 -2 6 -13 5 -11 0 -14 -3 -6 -6z"/>
<path d="M4472 25 c0 -17 2 -22 5 -12 2 9 2 23 0 30 -3 6 -5 -1 -5 -18z"/>
</g>
</svg>
